# xmcd CD database file
# Copyright (C) 1996 Ti Kan
#
# Track frame offsets:
#	150
#	14569
#	30096
#	45185
#	62272
#	77491
#	96791
#	113202
#	133203
#	151639
#	168455
#	187775
#	208398
# Disc length: 3005 seconds
#
# Revision: 1
# Processed by: cddbd v1.4PL0 Copyright (c) Steve Scherf et al.
# Submitted via: CDCOPY 4.900
#
DISCID=940bbb0d
DTITLE=Svetlana - The Music of ANASTACIA
DYEAR=1900
DGENRE=
TTITLE0=Boom
TTITLE1=One Day In Your Life
TTITLE2=Paid My Dues
TTITLE3=I'm Outta Love
TTITLE4=Not That Kind
TTITLE5=You'll Never Be Alone
TTITLE6=Freak Of Nature
TTITLE7=Cowboys and Kisses
TTITLE8=How Come The World Won't Stop
TTITLE9=Why'd You Lied To Me
TTITLE10=Don't Stop (Doin' It)
TTITLE11=Overdue Goodbye
TTITLE12=Don't Cha Wanna
EXTD=
EXTT0=
EXTT1=
EXTT2=
EXTT3=
EXTT4=
EXTT5=
EXTT6=
EXTT7=
EXTT8=
EXTT9=
EXTT10=
EXTT11=
EXTT12=
PLAYORDER=
